<svg xmlns="http://www.w3.org/2000/svg" width="31.2" height="22.4" viewBox="0 0 31.2 22.4">
  <g id="Group_2808" data-name="Group 2808" transform="translate(-7.8 -19.8)">
    <path id="Path_8416" data-name="Path 8416" d="M11.3,20A3.356,3.356,0,0,0,8,23.38V38.608A3.366,3.366,0,0,0,11.3,42H35.5a3.366,3.366,0,0,0,3.3-3.392V23.38A3.356,3.356,0,0,0,35.5,20Zm.161,2.2H35.351l-11.3,10.725a.849.849,0,0,1-1.283,0ZM10.2,24.033l7.494,7.1L10.2,38.608Zm26.4,0V38.608l-7.471-7.482Zm-9.052,8.605L34.686,39.8H12.125l7.161-7.15,1.971,1.868a3.155,3.155,0,0,0,4.308,0Z" stroke="#fff" stroke-width="0.4"/>
  </g>
</svg>
