<svg xmlns="http://www.w3.org/2000/svg" width="26.089" height="36.257" viewBox="0 0 26.089 36.257">
  <g id="Group_2812" data-name="Group 2812" transform="translate(-17.63 -5)">
    <path id="Path_8419" data-name="Path 8419" d="M43.684,17.018,32.839,6.181A.805.805,0,0,0,32.348,6H19.666a1.6,1.6,0,0,0-.556.1l-.483.483a1.619,1.619,0,0,0-.117.548V40.335a1.619,1.619,0,0,0,.117.548l.483.483a1.613,1.613,0,0,0,.552.117H42.725a1.6,1.6,0,0,0,.556-.117l.483-.483a1.7,1.7,0,0,0,.117-.548V17.509A.806.806,0,0,0,43.684,17.018ZM43.144,40.5l-.25.254a.8.8,0,0,1-.169.028H19.666a.8.8,0,0,1-.169-.028l-.254-.254a1.04,1.04,0,0,1-.024-.165V7.128a1.04,1.04,0,0,1,.024-.165l.27-.254a.8.8,0,0,1,.169-.028H32.046V17.8H43.173V40.335A.792.792,0,0,1,43.144,40.5Z" transform="translate(-0.525 -0.597)"/>
    <path id="Path_8420" data-name="Path 8420" d="M42.2,41.257H19.141a1.986,1.986,0,0,1-.7-.149.429.429,0,0,1-.113-.077l-.479-.483a.332.332,0,0,1-.068-.1,1.916,1.916,0,0,1-.149-.7V6.531a1.9,1.9,0,0,1,.149-.7.313.313,0,0,1,.077-.113l.479-.483a.348.348,0,0,1,.113-.077A2.014,2.014,0,0,1,19.141,5H31.823a1.182,1.182,0,0,1,.749.31L43.409,16.147a1.168,1.168,0,0,1,.31.753V39.738a2.068,2.068,0,0,1-.157.713.407.407,0,0,1-.081.113L43,41.047a.4.4,0,0,1-.109.077A2.014,2.014,0,0,1,42.2,41.257ZM19.064,39.726l.089.089H42.188l.089-.089V17.569H31.52a.367.367,0,0,1-.258-.109.355.355,0,0,1-.113-.262V6.454h-12l-.093.093ZM31.879,16.832H42.635a.375.375,0,0,1,.334.209v-.129a.465.465,0,0,0-.1-.234L32.052,5.846a.479.479,0,0,0-.23-.093h-.137a.327.327,0,0,1,.1.068.366.366,0,0,1,.109.262Z" transform="translate(0)"/>
    <path id="Path_8421" data-name="Path 8421" d="M48.385,62.264H47.72V66.1H48.4a1.829,1.829,0,0,0,1.39-.532,2.015,2.015,0,0,0,.5-1.446,1.834,1.834,0,0,0-.5-1.362A1.909,1.909,0,0,0,48.385,62.264Z" transform="translate(-17.968 -34.193)"/>
    <path id="Path_8422" data-name="Path 8422" d="M35.656,62.109H35.12v1.885h.536q1.088,0,1.088-.955T35.656,62.109Z" transform="translate(-10.444 -34.102)"/>
    <path id="Path_8423" data-name="Path 8423" d="M43.312,53.51H19.665a.657.657,0,0,0-.665.649V63.73a.657.657,0,0,0,.653.661H43.308a.657.657,0,0,0,.669-.645V54.171a.657.657,0,0,0-.653-.661ZM27.895,59.347a2.593,2.593,0,0,1-1.752.564h-.649v2.083H24.132V55.951h2.119c1.523,0,2.28.641,2.28,1.926A1.849,1.849,0,0,1,27.895,59.347Zm5.8,1.8a3.252,3.252,0,0,1-2.341.842H29.208V55.951h2.143q3.223,0,3.223,2.945a2.989,2.989,0,0,1-.882,2.236Zm5.148-4.113H36.725v1.5h1.958v1.1H36.725v2.349H35.348V55.951H38.84Z" transform="translate(-0.818 -28.968)"/>
  </g>
</svg>
