<svg xmlns="http://www.w3.org/2000/svg" width="22.031" height="23.016" viewBox="0 0 22.031 23.016">
  <g id="Group_2807" data-name="Group 2807" transform="translate(-38.133 -29.5)">
    <g id="Group_2806" data-name="Group 2806" transform="translate(36.223 30)">
      <path id="Path_8417" data-name="Path 8417" d="M12.926,0A10.526,10.526,0,0,0,2.41,10.516a10.394,10.394,0,0,0,2.159,6.377L2.915,21.375a.5.5,0,0,0,.11.488.414.414,0,0,0,.488.1l4.9-1.949a10.39,10.39,0,0,0,4.51,1.024A10.517,10.517,0,0,0,12.926,0Zm0,20.117A9.543,9.543,0,0,1,8.639,19.1a.46.46,0,0,0-.375-.017L4.132,20.729l1.385-3.757a.466.466,0,0,0-.072-.447,9.478,9.478,0,0,1-2.121-6.009,9.6,9.6,0,1,1,9.6,9.6Z" stroke="#000" stroke-width="1"/>
    </g>
    <path id="Path_8418" data-name="Path 8418" d="M21.443,17.209a.574.574,0,0,0-.159-.286l-.96-.96a.591.591,0,0,0-.561-.154,1.612,1.612,0,0,0-.981.7,1.173,1.173,0,0,0-.129.3.414.414,0,0,1-.127.226.1.1,0,0,1-.049,0,7.5,7.5,0,0,1-1.9-1.479,7.635,7.635,0,0,1-1.47-1.876.1.1,0,0,1-.006-.068.4.4,0,0,1,.228-.127,1.273,1.273,0,0,0,.3-.127,1.617,1.617,0,0,0,.7-.981.591.591,0,0,0-.154-.561l-.96-.96a.58.58,0,0,0-.288-.159,1.35,1.35,0,0,0-1.113.453,2.411,2.411,0,0,0-.785,2.143A6.549,6.549,0,0,0,15.132,17a6.535,6.535,0,0,0,3.706,2.1,2.05,2.05,0,0,0,.347.027,2.369,2.369,0,0,0,1.787-.791A1.372,1.372,0,0,0,21.443,17.209Z" transform="translate(31.916 25.638)"/>
  </g>
</svg>
