<svg xmlns="http://www.w3.org/2000/svg" width="22" height="22" viewBox="0 0 22 22">
  <g id="Group_2791" data-name="Group 2791" transform="translate(-556 -3245)">
    <g id="Group_196" data-name="Group 196" transform="translate(556 3245)">
      <path id="Path_24" data-name="Path 24" d="M-62.875-133.268h-8.25A6.876,6.876,0,0,0-78-126.393v8.25a6.876,6.876,0,0,0,6.875,6.875h8.25A6.876,6.876,0,0,0-56-118.143v-8.25a6.876,6.876,0,0,0-6.875-6.875Zm4.812,15.125a4.818,4.818,0,0,1-4.812,4.812h-8.25a4.818,4.818,0,0,1-4.813-4.812v-8.25a4.818,4.818,0,0,1,4.813-4.813h8.25a4.818,4.818,0,0,1,4.812,4.813Zm0,0" transform="translate(78 133.268)"/>
      <path id="Path_25" data-name="Path 25" d="M29.9-30.87a5.5,5.5,0,0,0-5.5,5.5,5.5,5.5,0,0,0,5.5,5.5,5.5,5.5,0,0,0,5.5-5.5,5.5,5.5,0,0,0-5.5-5.5Zm0,8.938a3.442,3.442,0,0,1-3.437-3.437A3.441,3.441,0,0,1,29.9-28.807a3.441,3.441,0,0,1,3.437,3.437A3.442,3.442,0,0,1,29.9-21.932Zm0,0" transform="translate(-18.898 36.37)"/>
      <path id="Path_26" data-name="Path 26" d="M224.7-51.461a.733.733,0,0,1-.733.733.733.733,0,0,1-.733-.733.733.733,0,0,1,.733-.733.733.733,0,0,1,.733.733Zm0,0" transform="translate(-207.055 56.549)" stroke="#000" stroke-width="0.6"/>
    </g>
  </g>
</svg>
